<svg id="Capa_1" data-name="Capa 1" xmlns="http://www.w3.org/2000/svg" viewBox="0 0 183 36"><defs><style>.cls-1{fill:#25b4bd;}.cls-2{fill:#279d2e;}.cls-3{fill:#3c3c3b;}</style></defs><path class="cls-1" d="M150.83,26.88v1.53A7.69,7.69,0,0,0,158.44,36h3.95a2.22,2.22,0,0,0,2.32-2.29V18.82a1.18,1.18,0,0,0-1.92-.88l-11.15,7.18a1.75,1.75,0,0,0-.81,1.76"/><path class="cls-2" d="M152.4,21.24l10.68-6.89c2.21-1.41,4.47-.06,4.47,2.18v8.29A1.46,1.46,0,0,0,169,26.35h1.91c6.51,0,12.08-4.7,12.08-12.7C183,5.18,176.5,0,168.89,0H153a2.2,2.2,0,0,0-2.15,2.18V20.47a1,1,0,0,0,1.57.77"/><path class="cls-3" d="M10,19.74c0,2.56-1.42,3.68-4.68,3.68H0V10.57H5c3.25,0,4.67,1.14,4.67,3.44a2.65,2.65,0,0,1-2.25,2.75,2.8,2.8,0,0,1,2.62,3m-8-7.2v3.33H5c1.54,0,2.54-.35,2.54-1.69s-1-1.64-2.54-1.64Zm5.87,7c0-1.48-1-1.83-2.55-1.83H2v3.76H5.36c1.51,0,2.55-.37,2.55-1.93"/><path class="cls-3" d="M19.88,16.66v6.76H18.46l-.38-1.86a3.59,3.59,0,0,1-3.42,2c-2.2,0-3.21-1.27-3.21-2.95,0-3,3.23-3.29,6.5-3.62v-.32c0-1.56-.89-2.26-2.54-2.26a4.26,4.26,0,0,0-2.95,1.29l-1-1.55a6.36,6.36,0,0,1,4.06-1.47c3,0,4.32,1.42,4.36,4M18,19.5V18.45c-2.38.24-4.5.48-4.5,2.08,0,.83.45,1.38,1.67,1.38A2.69,2.69,0,0,0,18,19.5"/><path class="cls-3" d="M31.09,16.43v7h-2V16.9c0-1.63-.69-2.39-2.14-2.39-1.69,0-2.65,1-2.8,3v5.89H22.22V12.82h1.41l.39,1.8a3.63,3.63,0,0,1,3.5-1.95c2.18,0,3.57,1.23,3.57,3.76"/><path class="cls-3" d="M33,18.1c0-3.24,1.68-5.43,4.94-5.43a5.18,5.18,0,0,1,3.71,1.45l-1,1.62a3.29,3.29,0,0,0-2.71-1.34c-1.72,0-3,1.29-3,3.68s1.42,3.76,3,3.76a3.33,3.33,0,0,0,2.71-1.35l1,1.62a5.23,5.23,0,0,1-3.71,1.46c-3.11,0-4.94-2.19-4.94-5.47"/><path class="cls-3" d="M42.46,18.08c0-3.31,1.46-5.41,4.84-5.41s4.81,2.12,4.81,5.41-1.43,5.47-4.81,5.47-4.84-2.12-4.84-5.47m7.66,0c0-2.45-.86-3.66-2.82-3.66s-2.84,1.21-2.84,3.66.88,3.76,2.84,3.76,2.82-1.25,2.82-3.76"/><path class="cls-3" d="M68.31,15c0,2.63-1.46,4.36-4.85,4.36H61.2v4.09H58.06V10.55h5.4c3.36,0,4.85,1.71,4.85,4.42m-3.18,0c0-1.23-.55-1.8-1.87-1.8H61.2v3.6h2.06A1.62,1.62,0,0,0,65.13,15"/><path class="cls-3" d="M76.26,12.71v3.14a4.92,4.92,0,0,0-1.13-.09c-1.51,0-2.16.9-2.25,2.62v0l0,5.08h-3V12.78h2.25l.62,2.12a3.11,3.11,0,0,1,2.89-2.27,1.83,1.83,0,0,1,.66.08"/><path class="cls-3" d="M77,18.06c0-3.4,1.69-5.45,5.2-5.45s5.18,2.05,5.18,5.45-1.71,5.53-5.18,5.53S77,21.52,77,18.06m7.23,0c0-2-.61-3-2-3s-2.07,1-2.07,3,.63,3.09,2.07,3.09,2-1,2-3.09"/><path class="cls-3" d="M98.13,12.78,94.68,23.42H91.26L87.81,12.78h3l1.84,6.43c.1.47.2,1,.27,1.43.07-.46.14-1,.25-1.43l1.86-6.43Z"/><path class="cls-3" d="M99.38,9.91h3v2h-3Zm0,2.87h3V23.42h-3Z"/><path class="cls-3" d="M114.36,16.37v7.05h-3V17.16c0-1.34-.49-1.95-1.59-1.95s-1.91.72-2,2.32v5.89h-3V12.78h2.23l.55,1.88a3.27,3.27,0,0,1,3.31-2c2.29,0,3.56,1.24,3.56,3.74"/><path class="cls-3" d="M116.09,18.1c0-3.39,1.84-5.49,5.35-5.49a6,6,0,0,1,3.7,1.18l-1,2.52a3.32,3.32,0,0,0-2.51-1.12c-1.36,0-2.45.9-2.45,2.89S120.4,21,121.67,21a3.4,3.4,0,0,0,2.51-1.12l1,2.52a6.15,6.15,0,0,1-3.7,1.18c-3.42,0-5.35-2.1-5.35-5.49"/><path class="cls-3" d="M126.7,9.91h3v2h-3Zm0,2.87h3V23.42h-3Z"/><path class="cls-3" d="M140.84,16.79v6.63h-2.23l-.55-2a3.3,3.3,0,0,1-3.36,2.12c-2.27,0-3.16-1.31-3.16-3,0-3,2.94-3.3,6.32-3.63v0c0-1.32-.89-1.84-2.27-1.84a4.19,4.19,0,0,0-2.92,1.27l-1.2-2.26a7.35,7.35,0,0,1,4.45-1.44c3.42,0,4.91,1.47,4.92,4.14m-3,2.6v-.76c-1.94.23-3.29.43-3.29,1.62,0,.67.33,1.09,1.2,1.09a2,2,0,0,0,2.09-1.95"/></svg>